<svg width="515" height="132" viewBox="0 0 515 132" fill="none" xmlns="http://www.w3.org/2000/svg">
<path d="M84.096 81.336C84.1813 92.5147 80.9813 101.261 74.496 107.576C68.0107 113.805 59.0933 116.92 47.744 116.92C41.0027 116.92 34.7733 115.384 29.056 112.312C23.424 109.24 18.944 104.888 15.616 99.256C12.288 93.624 10.624 87.1387 10.624 79.8V61.112C10.624 53.8587 12.2027 47.416 15.36 41.784C18.6027 36.152 22.9973 31.8 28.544 28.728C34.176 25.5707 40.448 23.992 47.36 23.992C58.7093 23.992 67.584 27.1067 73.984 33.336C80.4693 39.48 83.7547 48.184 83.84 59.448H60.8C60.7147 55.096 59.52 51.7253 57.216 49.336C54.9973 46.9467 51.712 45.752 47.36 45.752C43.4347 45.752 40.192 46.9893 37.632 49.464C35.072 51.9387 33.792 55.4373 33.792 59.96V80.824C33.792 85.3467 35.1147 88.888 37.76 91.448C40.4907 93.9227 43.8187 95.16 47.744 95.16C56.704 95.16 61.184 90.552 61.184 81.336H84.096ZM96.926 115V25.912H101.662V68.024H160.798V25.912H165.534V115H160.798V72.76H101.662V115H96.926ZM212.668 25.912H217.66L254.268 115H249.148L237.116 85.56H193.212L181.052 115H176.06L212.668 25.912ZM195.132 80.952H235.196L215.1 32.056L195.132 80.952ZM334.938 25.912V30.648H301.274V115H296.666V30.648H263.002V25.912H334.938ZM418.808 25.912V30.648H385.144V115H380.536V30.648H346.872V25.912H418.808ZM435.222 25.912L466.838 73.528L498.198 25.912H503.83L469.142 78.52V115H464.406V78.52L429.59 25.912H435.222Z" fill="#748EA0"/>
</svg>
